<?xml version="1.0" encoding="utf-8"?>
<!-- Generator: Adobe Illustrator 16.0.0, SVG Export Plug-In . SVG Version: 6.00 Build 0)  -->
<!DOCTYPE svg PUBLIC "-//W3C//DTD SVG 1.1//EN" "http://www.w3.org/Graphics/SVG/1.1/DTD/svg11.dtd">
<svg version="1.1" id="Layer_1" xmlns="http://www.w3.org/2000/svg" xmlns:xlink="http://www.w3.org/1999/xlink" x="0px" y="0px"
	 width="16.797px" height="17.369px" viewBox="0 0 16.797 17.369" enable-background="new 0 0 16.797 17.369" xml:space="preserve">
<g>
	<defs>
		<rect id="SVGID_1_" width="16.797" height="17.369"/>
	</defs>
	<clipPath id="SVGID_2_">
		<use xlink:href="#SVGID_1_"  overflow="visible"/>
	</clipPath>
	<path clip-path="url(#SVGID_2_)" fill="#FDFDFD" d="M8.399,13.815c-2.987,0-5.418-2.43-5.418-5.417
		c0-2.987,2.431-5.418,5.418-5.418c2.987,0,5.417,2.431,5.417,5.418C13.816,11.386,11.386,13.815,8.399,13.815 M8.399,4.543
		c-2.126,0-3.855,1.73-3.855,3.856c0,2.125,1.729,3.856,3.855,3.856c2.125,0,3.855-1.73,3.855-3.856
		C12.254,6.273,10.524,4.543,8.399,4.543"/>
	<path clip-path="url(#SVGID_2_)" fill="#FDFDFD" d="M8.399,2.377c-0.185,0-0.335-0.149-0.335-0.334V0.334
		C8.063,0.149,8.214,0,8.399,0c0.185,0,0.335,0.15,0.335,0.335v1.709C8.734,2.229,8.583,2.377,8.399,2.377"/>
	<path clip-path="url(#SVGID_2_)" fill="#FDFDFD" d="M12.893,4.24c-0.086,0-0.172-0.033-0.236-0.099
		c-0.132-0.13-0.132-0.342,0-0.473l1.209-1.208c0.13-0.131,0.341-0.131,0.472,0s0.131,0.343,0,0.473l-1.208,1.208
		C13.063,4.207,12.978,4.24,12.893,4.24"/>
	<path clip-path="url(#SVGID_2_)" fill="#FDFDFD" d="M16.462,8.733h-1.708c-0.185,0-0.335-0.149-0.335-0.334
		c0-0.186,0.15-0.335,0.335-0.335h1.708c0.187,0,0.335,0.149,0.335,0.335C16.797,8.584,16.648,8.733,16.462,8.733"/>
	<path clip-path="url(#SVGID_2_)" fill="#FDFDFD" d="M3.904,4.24c-0.086,0-0.171-0.033-0.236-0.099L2.46,2.933
		c-0.131-0.13-0.131-0.342,0-0.473s0.341-0.131,0.472,0l1.208,1.208c0.131,0.131,0.131,0.343,0,0.473
		C4.076,4.207,3.991,4.24,3.904,4.24"/>
	<path clip-path="url(#SVGID_2_)" fill="#FDFDFD" d="M2.043,8.733H0.334C0.149,8.733,0,8.584,0,8.399
		c0-0.186,0.149-0.335,0.334-0.335h1.709c0.185,0,0.335,0.149,0.335,0.335C2.378,8.584,2.228,8.733,2.043,8.733"/>
	<path clip-path="url(#SVGID_2_)" fill="#FDFDFD" d="M10.301,12.485H8.398H6.496c0,0-0.111,2.576,0,3.652
		c0.112,1.078,1.902,1.231,1.902,1.231s1.79-0.153,1.902-1.231C10.412,15.062,10.301,12.485,10.301,12.485 M9.415,15.97h-2.05
		c-0.184,0-0.335-0.149-0.335-0.335c0-0.184,0.151-0.335,0.335-0.335h2.05c0.187,0,0.335,0.151,0.335,0.335
		C9.75,15.82,9.602,15.97,9.415,15.97 M9.415,14.816h-2.05c-0.184,0-0.335-0.15-0.335-0.335c0-0.187,0.151-0.335,0.335-0.335h2.05
		c0.187,0,0.335,0.148,0.335,0.335C9.75,14.666,9.602,14.816,9.415,14.816"/>
</g>
</svg>
