<?xml version="1.0" encoding="utf-8"?>
<!-- Generator: Adobe Illustrator 16.0.0, SVG Export Plug-In . SVG Version: 6.00 Build 0)  -->
<!DOCTYPE svg PUBLIC "-//W3C//DTD SVG 1.1//EN" "http://www.w3.org/Graphics/SVG/1.1/DTD/svg11.dtd">
<svg version="1.1" id="Layer_1" xmlns="http://www.w3.org/2000/svg" xmlns:xlink="http://www.w3.org/1999/xlink" x="0px" y="0px"
	 width="62.842px" height="63.942px" viewBox="0 0 62.842 63.942" enable-background="new 0 0 62.842 63.942" xml:space="preserve">
<g>
	<defs>
		<rect id="SVGID_1_" width="62.842" height="63.942"/>
	</defs>
	<clipPath id="SVGID_2_">
		<use xlink:href="#SVGID_1_"  overflow="visible"/>
	</clipPath>
	<g clip-path="url(#SVGID_2_)">
		<defs>
			<path id="SVGID_3_" d="M3.385,31.97c0,15.76,12.552,28.537,28.036,28.537c15.483,0,28.036-12.776,28.036-28.537
				c0-15.758-12.553-28.533-28.036-28.533C15.937,3.437,3.385,16.212,3.385,31.97"/>
		</defs>
		<clipPath id="SVGID_4_">
			<use xlink:href="#SVGID_3_"  overflow="visible"/>
		</clipPath>
		
			<linearGradient id="SVGID_5_" gradientUnits="userSpaceOnUse" x1="4.882813e-004" y1="63.9419" x2="1.0005" y2="63.9419" gradientTransform="matrix(56.0719 0 0 -56.0719 3.375 3617.3196)">
			<stop  offset="0" style="stop-color:#223980"/>
			<stop  offset="0.2576" style="stop-color:#194685"/>
			<stop  offset="0.8576" style="stop-color:#007DBD"/>
			<stop  offset="1" style="stop-color:#007DBD"/>
		</linearGradient>
		<rect x="3.385" y="3.437" clip-path="url(#SVGID_4_)" fill="url(#SVGID_5_)" width="56.072" height="57.069"/>
	</g>
	<g clip-path="url(#SVGID_2_)">
		<defs>
			<rect id="SVGID_6_" width="62.842" height="63.942"/>
		</defs>
		<clipPath id="SVGID_7_">
			<use xlink:href="#SVGID_6_"  overflow="visible"/>
		</clipPath>
		
			<ellipse clip-path="url(#SVGID_7_)" fill="none" stroke="#2E318B" stroke-miterlimit="10" cx="31.421" cy="31.971" rx="30.921" ry="31.472"/>
		<g opacity="0.1" clip-path="url(#SVGID_7_)">
			<g>
				<defs>
					<rect id="SVGID_8_" x="6.697" y="10.214" width="48.02" height="44.966"/>
				</defs>
				<clipPath id="SVGID_9_">
					<use xlink:href="#SVGID_8_"  overflow="visible"/>
				</clipPath>
				<path clip-path="url(#SVGID_9_)" fill="#FFFFFF" d="M35.809,34.615c-2.008-2.109-4.262-4-6.654-5.646
					c1.045-1.63,2.241-3.115,3.581-4.5c0.002-0.003,0.004-0.005,0.004-0.009c1.006-1.021,2.07-1.969,3.191-2.856
					c3.112-2.397,6.658-4.299,10.471-5.216c2.026-0.489,4.746-0.993,6.641,0.158c1.896,1.151,1.977,3.55,1.254,5.454
					c-1.374,3.615-4.997,6.371-8.147,8.282C42.93,32.233,39.422,33.638,35.809,34.615"/>
				<path clip-path="url(#SVGID_9_)" fill="#FFFFFF" d="M28.585,29.877c2.016,1.49,3.902,3.228,5.5,5.167
					c-2.599,0.529-5.281,0.86-7.933,0.961C26.618,33.88,27.46,31.735,28.585,29.877"/>
				<path clip-path="url(#SVGID_9_)" fill="#FFFFFF" d="M34.754,35.923c1.873,2.652,3.293,5.618,4.122,8.778
					c0.618,2.355,1.053,5.028,0.457,7.438c-0.66,2.687-3.003,3.625-5.452,2.687c-2.873-1.102-5.087-3.706-6.335-6.492
					c-1.532-3.428-1.825-7.298-1.617-11.018C28.892,37.041,31.853,36.589,34.754,35.923"/>
				<path clip-path="url(#SVGID_9_)" fill="#FFFFFF" d="M21.818,25.995c0.029,0.02,0.058,0.035,0.085,0.047
					c1.833,0.795,3.588,1.749,5.265,2.846c-1.063,2.242-1.834,4.684-2.303,7.13c-2.672-0.053-5.328-0.414-7.935-1.028
					c-3.306-0.776-6.912-2.418-9.161-5.088c-1.065-1.263-1.573-2.845-0.396-4.215c1.076-1.254,2.815-1.624,4.369-1.737
					C15.189,23.701,18.655,24.681,21.818,25.995"/>
				<path clip-path="url(#SVGID_9_)" fill="#FFFFFF" d="M24.67,37.401c-3.997,0.162-8.035-0.133-11.905-1.199
					c-0.71-0.194-1.448-0.425-2.195-0.688c1.196,7.234,5.967,13.679,13.153,16.592c1.352,0.55,2.728,0.946,4.107,1.199
					C25.128,48.631,24.239,42.729,24.67,37.401 M42.054,13.003c-0.812-0.463-1.659-0.88-2.545-1.242
					C29.074,7.53,17.314,12.278,12.46,22.386c2.233,0.211,4.445,0.746,6.534,1.447c2.92,0.982,6.055,2.318,8.641,4.101
					c0.75-1.454,1.596-2.846,2.53-4.185c0.01-0.012,0.021-0.02,0.029-0.03c2.903-4.06,6.56-7.538,10.805-10.104
					C41.346,13.404,41.7,13.202,42.054,13.003 M52.515,27.583c-2.999,2.364-6.367,4.229-9.857,5.719
					c-0.016,0.01-0.029,0.021-0.046,0.028c-1.979,0.821-3.998,1.524-6.054,2.117c3.384,4.04,6.429,8.861,7.472,14.14
					c3.214-2.335,5.835-5.608,7.408-9.622C53.035,35.879,53.322,31.594,52.515,27.583"/>
			</g>
		</g>
	</g>
</g>
</svg>
