<?xml version="1.0" encoding="utf-8"?>
<!-- Generator: Adobe Illustrator 16.0.0, SVG Export Plug-In . SVG Version: 6.00 Build 0)  -->
<!DOCTYPE svg PUBLIC "-//W3C//DTD SVG 1.1//EN" "http://www.w3.org/Graphics/SVG/1.1/DTD/svg11.dtd">
<svg version="1.1" id="Layer_1" xmlns="http://www.w3.org/2000/svg" xmlns:xlink="http://www.w3.org/1999/xlink" x="0px" y="0px"
	 width="18.188px" height="14.512px" viewBox="0 0 18.188 14.512" enable-background="new 0 0 18.188 14.512" xml:space="preserve">
<g>
	<defs>
		<rect id="SVGID_1_" width="18.187" height="14.512"/>
	</defs>
	<clipPath id="SVGID_2_">
		<use xlink:href="#SVGID_1_"  overflow="visible"/>
	</clipPath>
	<path clip-path="url(#SVGID_2_)" fill="#FFFFFF" d="M6.073,13.003c-2.517,0-4.564-2.047-4.564-4.563
		c0-2.517,2.047-4.564,4.564-4.564s4.563,2.047,4.563,4.564C10.636,10.957,8.59,13.003,6.073,13.003 M6.073,5.479
		c-1.633,0-2.961,1.328-2.961,2.961s1.328,2.961,2.961,2.961c1.633,0,2.96-1.328,2.96-2.961S7.706,5.479,6.073,5.479"/>
	<path clip-path="url(#SVGID_2_)" fill="#FFFFFF" d="M7.743,8.44c0,0.922-0.748,1.67-1.67,1.67c-0.923,0-1.671-0.748-1.671-1.67
		c0-0.923,0.748-1.67,1.671-1.67C6.995,6.77,7.743,7.517,7.743,8.44"/>
	<rect x="4.857" y="2.367" clip-path="url(#SVGID_2_)" fill="#FFFFFF" width="2.429" height="2.429"/>
	
		<rect x="8.292" y="3.79" transform="matrix(0.7071 0.7071 -0.7071 0.7071 6.3233 -5.2565)" clip-path="url(#SVGID_2_)" fill="#FFFFFF" width="2.429" height="2.429"/>
	<rect x="9.716" y="7.225" clip-path="url(#SVGID_2_)" fill="#FFFFFF" width="2.429" height="2.43"/>
	
		<rect x="8.293" y="10.66" transform="matrix(-0.7074 0.7068 -0.7068 -0.7074 24.6263 13.5546)" clip-path="url(#SVGID_2_)" fill="#FFFFFF" width="2.429" height="2.429"/>
	<rect x="4.858" y="12.083" clip-path="url(#SVGID_2_)" fill="#FFFFFF" width="2.429" height="2.429"/>
	
		<rect x="1.423" y="10.66" transform="matrix(-0.7073 -0.7069 0.7069 -0.7073 -3.892 22.1385)" clip-path="url(#SVGID_2_)" fill="#FFFFFF" width="2.429" height="2.429"/>
	<rect y="7.225" clip-path="url(#SVGID_2_)" fill="#FFFFFF" width="2.429" height="2.43"/>
	
		<rect x="1.423" y="3.79" transform="matrix(0.7072 -0.707 0.707 0.7072 -2.7659 3.3299)" clip-path="url(#SVGID_2_)" fill="#FFFFFF" width="2.43" height="2.429"/>
	<path clip-path="url(#SVGID_2_)" fill="#FFFFFF" d="M14.604,6.638c-1.685,0-3.056-1.371-3.056-3.057
		c0-1.684,1.371-3.055,3.056-3.055c1.687,0,3.058,1.371,3.058,3.055C17.662,5.267,16.291,6.638,14.604,6.638 M14.604,1.265
		c-1.276,0-2.315,1.039-2.315,2.316c0,1.279,1.039,2.318,2.315,2.318c1.278,0,2.317-1.039,2.317-2.318
		C16.922,2.304,15.883,1.265,14.604,1.265"/>
	<path clip-path="url(#SVGID_2_)" fill="#FFFFFF" d="M15.837,3.582c0,0.681-0.552,1.231-1.231,1.231
		c-0.681,0-1.232-0.55-1.232-1.231c0-0.68,0.552-1.231,1.232-1.231C15.285,2.351,15.837,2.901,15.837,3.582"/>
	<rect x="14.236" y="-0.001" clip-path="url(#SVGID_2_)" fill="#FFFFFF" width="0.738" height="0.809"/>
	
		<rect x="16.484" y="0.93" transform="matrix(0.7068 0.7074 -0.7074 0.7068 5.8856 -11.5312)" clip-path="url(#SVGID_2_)" fill="#FFFFFF" width="0.738" height="0.809"/>
	<rect x="17.379" y="3.212" clip-path="url(#SVGID_2_)" fill="#FFFFFF" width="0.808" height="0.739"/>
	
		<rect x="16.449" y="5.46" transform="matrix(0.7074 0.7068 -0.7068 0.7074 9.0509 -10.2059)" clip-path="url(#SVGID_2_)" fill="#FFFFFF" width="0.806" height="0.739"/>
	<rect x="14.236" y="6.355" clip-path="url(#SVGID_2_)" fill="#FFFFFF" width="0.738" height="0.808"/>
	
		<rect x="11.989" y="5.426" transform="matrix(0.7068 0.7074 -0.7074 0.7068 7.7476 -7.0327)" clip-path="url(#SVGID_2_)" fill="#FFFFFF" width="0.738" height="0.808"/>
	<rect x="11.022" y="3.212" clip-path="url(#SVGID_2_)" fill="#FFFFFF" width="0.809" height="0.739"/>
	
		<rect x="11.954" y="0.965" transform="matrix(0.7068 0.7074 -0.7074 0.7068 4.567 -8.3506)" clip-path="url(#SVGID_2_)" fill="#FFFFFF" width="0.807" height="0.739"/>
</g>
</svg>
