<?xml version="1.0" encoding="utf-8"?>
<!-- Generator: Adobe Illustrator 16.0.0, SVG Export Plug-In . SVG Version: 6.00 Build 0)  -->
<!DOCTYPE svg PUBLIC "-//W3C//DTD SVG 1.1//EN" "http://www.w3.org/Graphics/SVG/1.1/DTD/svg11.dtd">
<svg version="1.1" id="Layer_1" xmlns="http://www.w3.org/2000/svg" xmlns:xlink="http://www.w3.org/1999/xlink" x="0px" y="0px"
	 width="17.262px" height="19.212px" viewBox="0 0 17.262 19.212" enable-background="new 0 0 17.262 19.212" xml:space="preserve">
<g>
	<defs>
		<rect id="SVGID_1_" width="17.262" height="19.212"/>
	</defs>
	<clipPath id="SVGID_2_">
		<use xlink:href="#SVGID_1_"  overflow="visible"/>
	</clipPath>
	<path clip-path="url(#SVGID_2_)" fill="#FFFFFF" d="M3.297,13.965l2.509-2.598c0.132-0.137,0.314-0.215,0.505-0.215h5.836
		c0.387,0,0.703,0.316,0.703,0.704c0,0.389-0.316,0.703-0.703,0.703H9.019c-0.123,0-0.242,0.049-0.329,0.136
		c-0.294,0.295-0.086,0.798,0.329,0.798h4.099c0.326,0,0.638-0.131,0.868-0.359l1.913-1.913c0.274-0.276,0.719-0.276,0.994,0
		l0.164,0.163c0.273,0.274,0.273,0.72,0,0.994l-2.89,2.888c-0.471,0.471-1.109,0.736-1.776,0.736H6.644l-0.897,0.897L3.297,13.965z"
		/>
	<path clip-path="url(#SVGID_2_)" fill="#FFFFFF" d="M3.439,19.211L0,15.192l2.422-2.021l3.439,4.02L3.439,19.211z M1.461,15.315
		l2.099,2.452l0.839-0.7L2.3,14.615L1.461,15.315z"/>
	<path clip-path="url(#SVGID_2_)" fill="#FFFFFF" d="M10.032,9.104V8.042C9.285,8.009,8.559,7.81,8.136,7.563L8.47,6.257
		C8.939,6.515,9.597,6.75,10.322,6.75c0.636,0,1.07-0.246,1.07-0.692c0-0.424-0.356-0.691-1.182-0.971
		C9.017,4.686,8.203,4.127,8.203,3.045c0-0.982,0.691-1.752,1.886-1.986V0h1.092v0.982c0.747,0.034,1.25,0.189,1.619,0.369
		l-0.325,1.26c-0.29-0.123-0.803-0.379-1.605-0.379c-0.726,0-0.959,0.311-0.959,0.624c0,0.368,0.39,0.602,1.338,0.96
		c1.328,0.468,1.862,1.082,1.862,2.086c0,0.993-0.701,1.841-1.984,2.063v1.139H10.032z"/>
</g>
</svg>
