<?xml version="1.0" encoding="utf-8"?>
<!-- Generator: Adobe Illustrator 16.0.0, SVG Export Plug-In . SVG Version: 6.00 Build 0)  -->
<!DOCTYPE svg PUBLIC "-//W3C//DTD SVG 1.1//EN" "http://www.w3.org/Graphics/SVG/1.1/DTD/svg11.dtd">
<svg version="1.1" id="Layer_1" xmlns="http://www.w3.org/2000/svg" xmlns:xlink="http://www.w3.org/1999/xlink" x="0px" y="0px"
	 width="17.123px" height="14.474px" viewBox="0 0 17.123 14.474" enable-background="new 0 0 17.123 14.474" xml:space="preserve">
<g>
	<defs>
		<rect id="SVGID_1_" width="17.123" height="14.474"/>
	</defs>
	<clipPath id="SVGID_2_">
		<use xlink:href="#SVGID_1_"  overflow="visible"/>
	</clipPath>
	<path clip-path="url(#SVGID_2_)" fill="#FFFFFF" d="M16.909,6.653l-2.303-1.836V1.981h-2.261v1.035L8.561,0L0.214,6.653
		c-0.245,0.195-0.285,0.553-0.09,0.798c0.195,0.245,0.552,0.285,0.798,0.09l7.639-6.09l7.64,6.09
		c0.104,0.083,0.229,0.124,0.354,0.124c0.167,0,0.332-0.074,0.444-0.214C17.194,7.207,17.154,6.848,16.909,6.653"/>
	<path clip-path="url(#SVGID_2_)" fill="#FFFFFF" d="M2.517,7.379v7.096h4.266v-2.947c0-0.885,0.718-1.604,1.604-1.604h0.35
		c0.886,0,1.604,0.719,1.604,1.604v2.947h4.266V7.379L8.562,2.561L2.517,7.379z"/>
</g>
</svg>
