<?xml version="1.0" encoding="utf-8"?>
<!-- Generator: Adobe Illustrator 16.0.0, SVG Export Plug-In . SVG Version: 6.00 Build 0)  -->
<!DOCTYPE svg PUBLIC "-//W3C//DTD SVG 1.1//EN" "http://www.w3.org/Graphics/SVG/1.1/DTD/svg11.dtd">
<svg version="1.1" id="Layer_1" xmlns="http://www.w3.org/2000/svg" xmlns:xlink="http://www.w3.org/1999/xlink" x="0px" y="0px"
	 width="17.319px" height="14.501px" viewBox="0 0 17.319 14.501" enable-background="new 0 0 17.319 14.501" xml:space="preserve">
<g>
	<defs>
		<rect id="SVGID_1_" width="17.319" height="14.501"/>
	</defs>
	<clipPath id="SVGID_2_">
		<use xlink:href="#SVGID_1_"  overflow="visible"/>
	</clipPath>
	<path clip-path="url(#SVGID_2_)" fill="#FFFFFF" d="M7.251,14.501C3.253,14.501,0,11.249,0,7.25C0,3.252,3.253,0,7.251,0
		c2.015,0,3.956,0.85,5.325,2.33c0.188,0.203,0.175,0.521-0.028,0.709s-0.521,0.175-0.709-0.028
		C10.66,1.735,8.987,1.002,7.251,1.002c-3.445,0-6.248,2.803-6.248,6.248c0,3.444,2.803,6.248,6.248,6.248
		c3.443,0,6.247-2.804,6.247-6.248c0-0.574-0.077-1.144-0.231-1.69c-0.075-0.267,0.081-0.544,0.348-0.62
		c0.268-0.074,0.543,0.081,0.617,0.348c0.18,0.636,0.27,1.296,0.27,1.962C14.501,11.249,11.249,14.501,7.251,14.501"/>
	<path clip-path="url(#SVGID_2_)" fill="#FFFFFF" d="M7.251,12.162c-2.708,0-4.912-2.203-4.912-4.911
		c0-2.709,2.204-4.912,4.912-4.912c1.11,0,2.199,0.382,3.064,1.074c0.217,0.173,0.251,0.488,0.079,0.705
		c-0.173,0.216-0.488,0.251-0.706,0.078C8.991,3.638,8.147,3.342,7.251,3.342c-2.155,0-3.909,1.754-3.909,3.909
		s1.754,3.908,3.909,3.908s3.908-1.753,3.908-3.908c0-0.119-0.006-0.239-0.016-0.358c-0.025-0.275,0.179-0.519,0.454-0.543
		c0.274-0.026,0.52,0.177,0.545,0.454c0.013,0.147,0.02,0.297,0.02,0.447C12.162,9.959,9.959,12.162,7.251,12.162"/>
	<path clip-path="url(#SVGID_2_)" fill="#FFFFFF" d="M9.605,7.25c0,1.3-1.055,2.354-2.354,2.354c-1.301,0-2.355-1.054-2.355-2.354
		c0-1.301,1.054-2.354,2.355-2.354C8.55,4.896,9.605,5.95,9.605,7.25"/>
	<path clip-path="url(#SVGID_2_)" fill="#FFFFFF" d="M7.251,7.751c-0.177,0-0.349-0.094-0.439-0.26
		c-0.134-0.243-0.045-0.548,0.197-0.68l8.029-4.411c0.242-0.133,0.547-0.045,0.681,0.199c0.133,0.242,0.045,0.547-0.198,0.68
		l-8.029,4.41C7.416,7.731,7.333,7.751,7.251,7.751"/>
	<path clip-path="url(#SVGID_2_)" fill="#FFFFFF" d="M16.818,3.787c-0.043,0-0.086-0.006-0.129-0.017l-2.072-0.55l0.55-2.072
		c0.071-0.268,0.347-0.426,0.613-0.356c0.267,0.071,0.427,0.346,0.354,0.613l-0.292,1.103l1.104,0.293
		c0.268,0.071,0.427,0.345,0.355,0.613C17.243,3.639,17.04,3.787,16.818,3.787"/>
</g>
</svg>
